<svg width="15" height="24" viewBox="0 0 15 24" fill="none" xmlns="http://www.w3.org/2000/svg">
<path d="M12.5905 23.7602L13.7963 22.5579C13.9573 22.3977 14.0376 22.2131 14.0376 22.0045C14.0376 21.7963 13.9573 21.6119 13.7963 21.4517L4.31733 12.0001L13.7961 2.54901C13.9571 2.38872 14.0373 2.20425 14.0373 1.99587C14.0373 1.78739 13.9571 1.60293 13.7961 1.44272L12.5902 0.240565C12.4295 0.0800199 12.2445 -7.8379e-08 12.0354 -8.75186e-08C11.8265 -9.66508e-08 11.6415 0.0802725 11.4808 0.240565L0.24097 11.447C0.0802035 11.6072 -0.000137845 11.7917 -0.000137854 12.0001C-0.000137863 12.2085 0.0802035 12.3927 0.24097 12.5529L11.4808 23.7602C11.6416 23.9204 11.8266 24 12.0354 24C12.2445 24 12.4295 23.9204 12.5905 23.7602Z" fill="#FFAD00"/>
</svg>
